<!-- Generated by IcoMoon.io -->
<svg version="1.1" xmlns="http://www.w3.org/2000/svg" width="1024" height="1024" viewBox="0 0 1024 1024">
<title></title>
<g id="icomoon-ignore">
</g>
<path fill="#000" d="M921.647 456.608c-114.984-109.544-276.406-167.453-444.264-145.719 9.717 57.884 29.315 115.076 59.436 169.179 146.035 2.255 278.508 60.409 376.964 154.009-0.548 1.996 2.817-10.478 4.68-18.855 6.244-28.077 9.537-57.265 9.537-87.222 0-15.363-0.866-30.524-2.552-45.436-1.847-16.337-5.141-33.396-3.8-25.956v0zM907.173 400.269c-118.402-94.921-273.537-142.866-434.217-121.997-5.133-49.389-3.204-98.954 5.394-147.221-1.641 0.203 5.747-0.706 11.124-1.22 12.679-1.212 25.53-1.831 38.527-1.831 167.707 0 311.309 103.209 370.752 249.577 4.615 11.363 9.774 26.715 8.42 22.693v0zM902.784 668.085c-45.661-46.011-99.735-83.659-159.724-110.446-71.067 169.833-215.45 288.96-382.471 333.749-1.897-0.875 5.394 2.492 11.025 4.886 48.039 20.425 100.893 31.726 156.386 31.726 166.396 0 309.061-101.602 369.343-246.151 2.896-6.944 6.354-16.206 5.441-13.764v0zM316.848 867.792c172.136-34.078 323.749-150.804 395.75-322.624-54.977-20.518-114.292-32.136-176.193-33.102-76.767 128.347-197.183 215.073-331.25 252.14-1.541-2.102 5.408 7.354 10.706 13.956 22.803 28.416 49.405 53.651 79.037 74.935 8.404 6.037 23.27 15.517 21.95 14.695v0zM186.327 736.1c64.531-16.456 125.941-45.037 180.527-84.753-93.136-122.027-130.275-270.603-114.24-413.455 1.123-1.066-13.75 13.446-21.745 22.311-63.942 70.901-102.868 164.803-102.868 267.797 0 69.058 17.5 134.029 48.308 190.72 4.442 8.173 11.372 19.598 10.018 17.38v0zM290.482 206.121c-26.022 145.169 6.96 299.888 102.367 425.035 44.962-37.242 84.431-82.602 116.052-135.448-63.175-113.43-82.733-239.666-63.934-359.079 1.010-0.213-5.644 1.209-9.942 2.232-45.316 10.787-87.643 29.285-125.517 54.029-9.076 5.93-21.519 15.074-19.025 13.23v0z"></path>
</svg>
